<svg width="55" height="55" viewBox="0 0 55 55" fill="none" xmlns="http://www.w3.org/2000/svg">
<path d="M43.7507 41.0416C43.3915 41.0416 43.0471 40.8989 42.7931 40.645C42.5392 40.391 42.3965 40.0466 42.3965 39.6874V20.9688C42.3954 20.435 42.4998 19.9062 42.7035 19.4128C42.9073 18.9195 43.2065 18.4712 43.584 18.0938C43.9614 17.7163 44.4097 17.4171 44.9031 17.2133C45.3964 17.0095 45.9252 16.9052 46.459 16.9063C48.5989 16.9061 50.7093 16.4077 52.6232 15.4505C52.9442 15.2936 53.3143 15.27 53.6527 15.3847C53.9911 15.4995 54.2704 15.7433 54.4298 16.0632C54.5892 16.383 54.6157 16.7529 54.5036 17.0922C54.3914 17.4315 54.1497 17.7127 53.8311 17.8745C51.5426 19.0206 49.0185 19.6178 46.459 19.6187C46.0998 19.6187 45.7554 19.7613 45.5015 20.0153C45.2475 20.2692 45.1048 20.6137 45.1048 20.9728V39.6874C45.1048 40.0466 44.9622 40.391 44.7082 40.645C44.4542 40.8989 44.1098 41.0416 43.7507 41.0416Z" fill="url(#paint0_linear_33_3190)"/>
<path d="M36.9805 31.5623C35.3735 31.5623 33.8026 32.0388 32.4665 32.9316C31.1303 33.8244 30.0889 35.0933 29.474 36.578C28.859 38.0626 28.6981 39.6963 29.0116 41.2724C29.3251 42.8485 30.0989 44.2962 31.2352 45.4325C32.3715 46.5688 33.8193 47.3426 35.3954 47.6561C36.9715 47.9696 38.6051 47.8087 40.0898 47.1938C41.5744 46.5788 42.8434 45.5374 43.7362 44.2013C44.629 42.8651 45.1055 41.2942 45.1055 39.6873C45.1033 37.533 44.2466 35.4677 42.7233 33.9444C41.2001 32.4211 39.1347 31.5644 36.9805 31.5623Z" fill="url(#paint1_linear_33_3190)"/>
<path d="M41.043 49.7216V50.5206C41.0398 51.597 40.6107 52.6285 39.8495 53.3897C39.0884 54.1508 38.0569 54.5799 36.9805 54.5831H4.48047C3.40402 54.5799 2.37257 54.1508 1.6114 53.3897C0.850229 52.6285 0.421184 51.597 0.417969 50.5206V47.8122C0.417104 44.2049 1.37694 40.6623 3.19882 37.5488C5.02069 34.4352 7.63887 31.8631 10.7842 30.0967C13.9295 28.3303 17.4885 27.4333 21.0954 27.4982C24.7022 27.563 28.2267 28.5871 31.3065 30.4654C29.3 31.7023 27.7517 33.5599 26.8964 35.7564C26.0411 37.9528 25.9255 40.3683 26.5672 42.6364C27.2089 44.9045 28.5728 46.9015 30.4521 48.3243C32.3313 49.7471 34.6233 50.5182 36.9805 50.5206C38.3737 50.5213 39.7537 50.2499 41.043 49.7216Z" fill="url(#paint2_linear_33_3190)"/>
<path d="M20.7298 30.2082C28.9566 30.2082 35.6256 23.5391 35.6256 15.3123C35.6256 7.08559 28.9566 0.416504 20.7298 0.416504C12.5031 0.416504 5.83398 7.08559 5.83398 15.3123C5.83398 23.5391 12.5031 30.2082 20.7298 30.2082Z" fill="url(#paint3_linear_33_3190)"/>
<defs>
<linearGradient id="paint0_linear_33_3190" x1="48.4842" y1="15.313" x2="48.4842" y2="41.0416" gradientUnits="userSpaceOnUse">
<stop stop-color="#255DAC"/>
<stop offset="1" stop-color="#1D4174"/>
</linearGradient>
<linearGradient id="paint1_linear_33_3190" x1="36.9805" y1="31.5623" x2="36.9805" y2="47.8123" gradientUnits="userSpaceOnUse">
<stop stop-color="#255DAC"/>
<stop offset="1" stop-color="#1D4174"/>
</linearGradient>
<linearGradient id="paint2_linear_33_3190" x1="20.7305" y1="27.4949" x2="20.7305" y2="54.5831" gradientUnits="userSpaceOnUse">
<stop stop-color="#255DAC"/>
<stop offset="1" stop-color="#1D4174"/>
</linearGradient>
<linearGradient id="paint3_linear_33_3190" x1="20.7298" y1="0.416504" x2="20.7298" y2="30.2082" gradientUnits="userSpaceOnUse">
<stop stop-color="#255DAC"/>
<stop offset="1" stop-color="#1D4174"/>
</linearGradient>
</defs>
</svg>
