<svg width="70" height="70" viewBox="0 0 70 70" fill="none" xmlns="http://www.w3.org/2000/svg">
<g clip-path="url(#clip0_33_3198)">
<path d="M33.4238 67.663C35.9614 67.663 38.4283 67.371 40.8049 66.8359C39.6445 65.2687 38.9521 63.3369 38.9521 61.241C38.9521 56.0312 43.1891 51.7948 48.3984 51.7948C48.8101 51.7948 49.22 51.8218 49.6272 51.8762V38.6866C49.6272 36.5484 51.2569 34.8725 53.3356 34.8725C53.5557 34.8725 53.7787 34.8909 53.9987 34.9291C57.5106 35.5272 62.6675 36.766 66.4773 39.1957C66.7222 37.555 66.8451 35.8984 66.8449 34.2395C66.8449 15.7795 51.8822 0.815918 33.4214 0.815918C14.9615 0.815771 0 15.7805 0 34.2394C0 52.6972 14.9639 67.663 33.4238 67.663ZM47.2369 33.8127C47.2369 41.4424 41.0532 47.626 33.4238 47.626C25.7949 47.626 19.6104 41.4424 19.6104 33.8127C19.6104 26.1838 25.7949 19.9993 33.4238 19.9993C41.0532 19.9993 47.2369 26.185 47.2369 33.8127ZM17.5638 7.21111L24.4706 19.4888C24.4706 19.4888 20.2829 21.6265 18.843 25.6282L5.5419 20.0005C10.1465 10.0247 17.5638 7.21111 17.5638 7.21111Z" fill="url(#paint0_linear_33_3198)"/>
<path d="M57.8451 46.999C57.8439 49.2783 57.8428 53.6275 57.8363 57.0576C60.0169 54.7262 61.853 52.0951 63.289 49.2442C63.2696 49.2165 63.2596 49.1857 63.2388 49.1598C62.36 47.931 60.5085 47.1937 57.8451 46.999ZM33.5523 30.4884C35.0356 30.4884 36.2375 31.6905 36.2375 33.1741C36.2375 34.6571 35.0356 35.8587 33.5523 35.8587C32.0698 35.8587 30.8672 34.6571 30.8672 33.1741C30.8672 31.6905 32.0698 30.4884 33.5523 30.4884Z" fill="url(#paint1_linear_33_3198)"/>
<path d="M53.7486 36.4103C53.6127 36.3872 53.4751 36.3755 53.3373 36.3754C52.0897 36.3754 51.1301 37.3676 51.1301 38.6865V53.7874C50.2771 53.474 49.3599 53.2953 48.3995 53.2953C44.0121 53.2953 40.4551 56.8523 40.4551 61.2397C40.4551 63.2272 41.1906 65.0403 42.3981 66.4331C43.854 68.1142 46.0005 69.1841 48.4005 69.1841C51.6154 69.1841 54.3825 67.2746 55.6324 64.5282C56.2376 63.1987 56.3255 60.7996 56.3302 59.3372C56.3314 59.0938 56.3314 58.8318 56.3327 58.5652C56.3463 53.7217 56.3463 45.4417 56.3463 45.4417C60.3609 45.4417 62.6969 46.3891 63.9981 47.7456C66.0249 49.8581 65.5246 52.9749 64.7938 55.1257C64.5224 55.9249 64.5 56.3402 64.7224 56.3402C64.8842 56.3402 65.1747 56.119 65.5913 55.6641C72.2716 48.3886 70.4287 43.7328 66.2041 40.7923C62.5029 38.2193 56.9823 36.96 53.7486 36.4103Z" fill="url(#paint2_linear_33_3198)"/>
</g>
<defs>
<linearGradient id="paint0_linear_33_3198" x1="33.4224" y1="0.815918" x2="33.4224" y2="67.663" gradientUnits="userSpaceOnUse">
<stop stop-color="#2967C2"/>
<stop offset="1" stop-color="#182E50"/>
</linearGradient>
<linearGradient id="paint1_linear_33_3198" x1="47.0781" y1="30.4884" x2="47.0781" y2="57.0576" gradientUnits="userSpaceOnUse">
<stop stop-color="#2967C2"/>
<stop offset="1" stop-color="#182E50"/>
</linearGradient>
<linearGradient id="paint2_linear_33_3198" x1="55.2275" y1="36.3754" x2="55.2275" y2="69.1841" gradientUnits="userSpaceOnUse">
<stop stop-color="#2967C2"/>
<stop offset="1" stop-color="#182E50"/>
</linearGradient>
<clipPath id="clip0_33_3198">
<rect width="70" height="70" fill="white"/>
</clipPath>
</defs>
</svg>
