<svg width="55" height="55" viewBox="0 0 55 55" fill="none" xmlns="http://www.w3.org/2000/svg">
<path d="M8.25057 0C3.72821 0 0.0137793 3.74129 0.0137793 8.26364V16.5005C0.0137793 21.0231 3.72811 24.7588 8.25067 24.7588H16.4876C21.01 24.7588 24.7512 21.023 24.7512 16.5005V8.26364C24.7511 3.74129 21.0099 0 16.4875 0H8.25057ZM38.4864 0C33.9639 0 30.2495 3.74129 30.2495 8.26364V16.5005C30.2495 21.0231 33.9638 24.7588 38.4864 24.7588H46.75C51.2725 24.7588 54.9869 21.023 54.9869 16.5005V8.26364C54.9869 3.74118 51.2726 0 46.75 0H38.4864ZM8.25057 30.2626C3.72811 30.2626 0.0136719 33.977 0.0136719 38.4995V46.7417C0.0136719 51.2642 3.728 55 8.25057 55H16.4875C21.0099 55 24.7511 51.2641 24.7511 46.7417V38.4995C24.7511 33.977 21.0099 30.2626 16.4875 30.2626H8.25057ZM38.4864 30.2626C33.9639 30.2626 30.2495 33.977 30.2495 38.4995V46.7417C30.2495 51.2642 33.9638 55 38.4864 55H46.75C51.2725 55 54.9869 51.2641 54.9869 46.7417V38.4995C54.9869 33.977 51.2726 30.2626 46.75 30.2626H38.4864Z" fill="url(#paint0_linear_33_3183)"/>
<defs>
<linearGradient id="paint0_linear_33_3183" x1="27.5003" y1="0" x2="27.5003" y2="55" gradientUnits="userSpaceOnUse">
<stop stop-color="#2866BE"/>
<stop offset="1" stop-color="#182E4F"/>
</linearGradient>
</defs>
</svg>
