<svg width="65" height="65" viewBox="0 0 65 65" fill="none" xmlns="http://www.w3.org/2000/svg">
<path d="M16.3508 16.1501H15.594L14.1797 23.2232H17.765L16.3508 16.1501ZM44.9572 30.2964C45.7208 32.3474 46.7364 34.0077 47.8603 35.4205C48.9842 34.0077 50.1176 32.3473 50.8812 30.2964H44.9572Z" fill="url(#paint0_linear_33_3173)"/>
<path d="M55.0514 10.7275H33.0915L37.6704 47.4698C37.7513 48.9726 37.3405 50.3875 36.3597 51.4951L28.6055 60.3571H55.0514C57.9766 60.3571 60.3563 57.9775 60.3563 55.0523V16.1503C60.3563 13.2251 57.9766 10.7275 55.0514 10.7275ZM55.0514 30.2965H54.5792C53.573 33.5245 51.9775 36.0504 50.3193 38.0417C51.6183 39.2293 53.0073 40.2035 54.3883 41.2947C55.1499 41.9042 55.2743 43.0163 54.6629 43.7796C54.0544 44.5417 52.938 44.6652 52.178 44.0541C50.6774 42.8697 49.2689 41.8783 47.8605 40.5858C46.452 41.8783 45.1614 42.8697 43.6608 44.0541C42.9008 44.6652 41.7844 44.5417 41.1759 43.7796C40.5646 43.0163 40.6889 41.9042 41.4505 41.2947C42.8315 40.2035 44.1026 39.2293 45.4016 38.0417C43.7434 36.0505 42.2656 33.5246 41.2596 30.2965H40.7874C39.81 30.2965 39.0191 29.5056 39.0191 28.5282C39.0191 27.5508 39.81 26.7599 40.7874 26.7599H46.0922V24.9916C46.0922 24.0142 46.8831 23.2234 47.8605 23.2234C48.8378 23.2234 49.6287 24.0142 49.6287 24.9916V26.7599H55.0514C56.0288 26.7599 56.8197 27.5508 56.8197 28.5282C56.8197 29.5056 56.0288 30.2965 55.0514 30.2965Z" fill="url(#paint1_linear_33_3173)"/>
<path d="M28.7833 4.64691C28.4534 1.99792 26.1896 0 23.52 0H5.30483C2.37963 0 0 2.37963 0 5.30483V44.4427C0 47.3679 2.37963 49.7475 5.30483 49.7475H33.1907C33.7065 49.1578 34.1389 48.7886 34.1572 48.0189C34.1617 47.826 28.8072 4.83836 28.7833 4.64691ZM21.6842 33.7985C20.7466 33.9914 19.7968 33.3827 19.6035 32.4118L18.4733 26.7599H13.4737L12.3435 32.4118C12.1536 33.3684 11.2314 33.997 10.2627 33.7985C9.30608 33.6068 8.68436 32.6761 8.87604 31.7177L12.4125 14.0349C12.5782 13.2095 13.3036 12.6137 14.1462 12.6137H17.8006C18.6433 12.6137 19.3686 13.2095 19.5344 14.0349L23.0709 31.7177C23.2626 32.6761 22.641 33.6068 21.6842 33.7985ZM20.6607 53.284L20.9641 55.7102C21.1664 57.335 22.246 58.9919 24.0218 59.8192L29.9584 53.284H20.6607Z" fill="url(#paint2_linear_33_3173)"/>
<defs>
<linearGradient id="paint0_linear_33_3173" x1="32.5304" y1="16.1501" x2="32.5304" y2="35.4205" gradientUnits="userSpaceOnUse">
<stop stop-color="#2968C3"/>
<stop offset="1" stop-color="#182E51"/>
</linearGradient>
<linearGradient id="paint1_linear_33_3173" x1="44.4809" y1="10.7275" x2="44.4809" y2="60.3571" gradientUnits="userSpaceOnUse">
<stop stop-color="#2968C3"/>
<stop offset="1" stop-color="#182E51"/>
</linearGradient>
<linearGradient id="paint2_linear_33_3173" x1="17.0786" y1="0" x2="17.0786" y2="59.8192" gradientUnits="userSpaceOnUse">
<stop stop-color="#2968C3"/>
<stop offset="1" stop-color="#182E51"/>
</linearGradient>
</defs>
</svg>
