<svg width="58" height="58" viewBox="0 0 58 58" fill="none" xmlns="http://www.w3.org/2000/svg">
<path d="M23.7107 12.2884C20.7068 10.0868 17.6249 7.37329 15.4314 4.08306L13.5112 1.20285C13.1044 0.592663 12.3461 0.320949 11.6415 0.532455C11.2993 0.63617 10.9996 0.847206 10.7866 1.13438C10.5736 1.42155 10.4586 1.76963 10.4586 2.12719V28.2704C9.47437 27.6964 8.34542 27.3435 7.12604 27.3435C3.45012 27.3435 0.460938 30.3327 0.460938 34.0086C0.460938 37.6845 3.45012 40.6736 7.12604 40.6736C10.8019 40.6736 13.7911 37.6844 13.7911 34.0085V7.59824C16.1457 10.5744 19.091 13.0336 21.7402 14.9765C23.0418 15.9301 23.7888 17.4012 23.7888 19.012C23.7888 21.7685 21.5464 24.0108 18.79 24.0108C17.869 24.0108 17.1237 24.7561 17.1237 25.6771C17.1237 26.5981 17.869 27.3434 18.79 27.3434C23.3837 27.3434 27.1213 23.6057 27.1213 19.012C27.1213 16.3677 25.8472 13.8553 23.7107 12.2884ZM55.2129 14.0767L31.6629 20.7418C31.3147 20.8414 31.0083 21.0517 30.7902 21.3409C30.5721 21.6301 30.454 21.9824 30.4539 22.3447V44.9331C29.4697 44.3591 28.3407 44.0062 27.1213 44.0062C23.4454 44.0062 20.4562 46.9954 20.4562 50.6713C20.4562 54.3472 23.4454 57.3364 27.1213 57.3364C30.7972 57.3364 33.7864 54.3472 33.7864 50.6713V30.2672L54.0039 24.5543V38.268C53.0197 37.694 51.8907 37.3411 50.6713 37.3411C46.9954 37.3411 44.0063 40.3303 44.0063 44.0062C44.0063 47.6821 46.9954 50.6713 50.6713 50.6713C54.3473 50.6713 57.3364 47.6821 57.3364 44.0062V15.6796C57.3364 14.5775 56.2823 13.7747 55.2129 14.0767Z" fill="url(#paint0_linear_33_3167)"/>
<defs>
<linearGradient id="paint0_linear_33_3167" x1="28.8987" y1="0.461426" x2="28.8987" y2="57.3364" gradientUnits="userSpaceOnUse">
<stop stop-color="#2A6CCB"/>
<stop offset="1" stop-color="#162640"/>
</linearGradient>
</defs>
</svg>
