<svg width="70" height="70" viewBox="0 0 70 70" fill="none" xmlns="http://www.w3.org/2000/svg">
<path d="M5.06641 22.0592V41.6776C5.06641 47.25 9.57957 51.7632 15.1519 51.7632H44.4414C46.5138 51.7632 48.2177 50.0592 48.2177 47.9868V28.3224C48.2177 22.75 43.7046 18.2368 38.1322 18.2368H8.84272C6.77035 18.2368 5.06641 19.8947 5.06641 21.9211V22.0592ZM51.5796 43.8882L59.6848 50.9803C60.9743 52.1316 63.0006 51.9934 64.1519 50.704C64.6585 50.1053 64.9348 49.3684 64.9348 48.6316V21.3684C64.9348 19.6184 63.5072 18.2368 61.8032 18.1908C61.0204 18.1908 60.2835 18.4671 59.7309 18.9737L51.5796 26.1118C50.8888 26.7105 50.5204 27.5855 50.5204 28.5066V41.5395C50.5204 42.4145 50.9348 43.2895 51.5796 43.8882Z" fill="url(#paint0_linear_33_3208)"/>
<defs>
<linearGradient id="paint0_linear_33_3208" x1="35.0006" y1="18.1908" x2="35.0006" y2="51.764" gradientUnits="userSpaceOnUse">
<stop stop-color="#2A6CCB"/>
<stop offset="1" stop-color="#162640"/>
</linearGradient>
</defs>
</svg>
