<svg width="24" height="24" viewBox="0 0 24 24" fill="none" xmlns="http://www.w3.org/2000/svg">
<path d="M12 7.5C10.7593 7.5 9.75 8.50927 9.75 9.75V10.5C9.33585 10.5 9 10.8359 9 11.25V15C9 15.4142 9.33585 15.75 9.75 15.75H14.25C14.6642 15.75 15 15.4142 15 15V11.25C15 10.8359 14.6642 10.5 14.25 10.5V9.75C14.25 8.50927 13.2407 7.5 12 7.5ZM11.25 10.5V9.75C11.25 9.33652 11.5865 9 12 9C12.4135 9 12.75 9.33652 12.75 9.75V10.5H11.25Z" fill="black"/>
<path d="M17.7881 6.12308C14.9489 3.32596 10.5793 3.00953 7.39395 5.15333L7.38472 3.92386C7.38315 3.71678 7.21402 3.55021 7.00695 3.55171L6.25695 3.55718C6.0498 3.55868 5.88315 3.72788 5.88472 3.93496L5.90572 6.74191C5.9079 7.04551 6.09285 7.31761 6.37372 7.43153C6.65535 7.54546 6.97687 7.47916 7.19002 7.26271C9.8037 4.61206 14.0851 4.58018 16.7356 7.19168C18.7589 9.18511 19.3113 12.1825 18.1618 14.7529C18.0799 14.9359 18.147 15.1491 18.3255 15.2404L18.9948 15.5824C19.1845 15.6793 19.4243 15.6012 19.5124 15.4073C20.9425 12.2567 20.2726 8.57041 17.7881 6.12308ZM17.623 16.5685C17.341 16.4546 17.0198 16.5209 16.8067 16.7373C14.1941 19.389 9.912 19.4201 7.26105 16.8083C5.23777 14.8149 4.6854 11.8175 5.83492 9.24713C5.91675 9.06413 5.8497 8.85091 5.6712 8.75963L5.0019 8.41763C4.81222 8.32073 4.57237 8.39881 4.48432 8.59268C3.05415 11.7432 3.72412 15.4295 6.20857 17.8769C9.04777 20.674 13.4174 20.99 16.6027 18.8466L16.612 20.0761C16.6135 20.2832 16.7827 20.4497 16.9897 20.4482L17.7397 20.4428C17.9469 20.4413 18.1135 20.2721 18.112 20.065L18.091 17.258C18.0888 16.9545 17.9038 16.6824 17.623 16.5685Z" fill="black"/>
</svg>
