<svg width="19" height="19" viewBox="0 0 19 19" fill="none" xmlns="http://www.w3.org/2000/svg">
<path d="M16.5756 9.14208C16.54 13.2842 13.1535 16.613 9.01144 16.5774C4.86935 16.5418 1.54057 13.1553 1.57615 9.01321C1.58528 7.84876 1.86584 6.70247 2.39555 5.66543C2.92525 4.62839 3.6895 3.72917 4.62758 3.03921L4.61012 5.07163C3.83903 5.93112 3.33232 6.99485 3.1508 8.13517C2.96928 9.2755 3.12066 10.444 3.58677 11.5004C4.05288 12.5568 4.81392 13.4563 5.77857 14.091C6.74323 14.7256 7.87051 15.0684 9.02515 15.0782C10.1798 15.088 11.3127 14.7644 12.2881 14.1463C13.2634 13.5282 14.0396 12.6418 14.5236 11.5935C15.0076 10.5451 15.1789 9.37938 15.0168 8.23613C14.8547 7.09288 14.3662 6.02068 13.6098 5.1482L13.6273 3.11577C14.5534 3.82183 15.3022 4.73417 15.814 5.7803C16.3258 6.82643 16.5866 7.97751 16.5756 9.14208ZM12.1209 3.85361L9.87095 3.83428L9.8194 9.83406L8.31946 9.82117L8.371 3.8214L6.12109 3.80207L9.15319 0.0779767L12.1209 3.85361Z" fill="black"/>
</svg>
