<svg width="24" height="24" viewBox="0 0 24 24" fill="none" xmlns="http://www.w3.org/2000/svg">
<path d="M11.4596 23.1988C12.3296 23.1988 13.1754 23.0987 13.9902 22.9152C13.5924 22.3779 13.355 21.7156 13.355 20.997C13.355 19.2107 14.8077 17.7582 16.5937 17.7582C16.7349 17.7582 16.8754 17.7675 17.015 17.7862V13.264C17.015 12.5309 17.5738 11.9563 18.2865 11.9563C18.3619 11.9563 18.4384 11.9626 18.5138 11.9757C19.7179 12.1808 21.486 12.6055 22.7922 13.4386C22.8762 12.8761 22.9183 12.3081 22.9182 11.7393C22.9182 5.41015 17.7882 0.279785 11.4588 0.279785C5.12966 0.279735 0 5.41051 0 11.7393C0 18.0677 5.13047 23.1988 11.4596 23.1988ZM16.1955 11.593C16.1955 14.2089 14.0754 16.329 11.4596 16.329C8.84398 16.329 6.72356 14.2089 6.72356 11.593C6.72356 8.97736 8.84398 6.85694 11.4596 6.85694C14.0754 6.85694 16.1955 8.97776 16.1955 11.593ZM6.02186 2.47242L8.38992 6.68192C8.38992 6.68192 6.95414 7.41485 6.46047 8.78684L1.90008 6.85734C3.47879 3.4371 6.02186 2.47242 6.02186 2.47242Z" fill="white"/>
<path d="M19.8316 16.1139C19.8312 16.8954 19.8308 18.3865 19.8286 19.5626C20.5762 18.7632 21.2057 17.8612 21.6981 16.8837C21.6914 16.8742 21.688 16.8636 21.6809 16.8548C21.3796 16.4335 20.7448 16.1807 19.8316 16.1139ZM11.5026 10.4531C12.0112 10.4531 12.4233 10.8653 12.4233 11.3739C12.4233 11.8824 12.0112 12.2944 11.5026 12.2944C10.9943 12.2944 10.582 11.8824 10.582 11.3739C10.582 10.8653 10.9943 10.4531 11.5026 10.4531Z" fill="white"/>
<path d="M18.4289 12.4836C18.3823 12.4757 18.3351 12.4717 18.2879 12.4717C17.8601 12.4717 17.5311 12.8119 17.5311 13.2641V18.4415C17.2387 18.3341 16.9242 18.2728 16.5949 18.2728C15.0906 18.2728 13.8711 19.4923 13.8711 20.9966C13.8711 21.678 14.1233 22.2997 14.5373 22.7772C15.0364 23.3536 15.7724 23.7204 16.5952 23.7204C17.6975 23.7204 18.6462 23.0657 19.0747 22.1241C19.2823 21.6683 19.3124 20.8457 19.314 20.3443C19.3144 20.2608 19.3144 20.171 19.3149 20.0796C19.3195 18.419 19.3195 15.5801 19.3195 15.5801C20.6959 15.5801 21.4968 15.9049 21.943 16.37C22.6379 17.0943 22.4664 18.1629 22.2158 18.9004C22.1227 19.1744 22.1151 19.3168 22.1913 19.3168C22.2468 19.3168 22.3464 19.2409 22.4892 19.085C24.7796 16.5905 24.1478 14.9942 22.6993 13.986C21.4303 13.1039 19.5376 12.6721 18.4289 12.4836Z" fill="white"/>
</svg>
