<svg width="20" height="20" viewBox="0 0 20 20" fill="none" xmlns="http://www.w3.org/2000/svg">
<path d="M16 15C15.8674 15 15.7402 14.9474 15.6464 14.8536C15.5527 14.7598 15.5 14.6326 15.5 14.5V7.58853C15.4996 7.39144 15.5381 7.19621 15.6134 7.01404C15.6886 6.83187 15.7991 6.66636 15.9385 6.52699C16.0778 6.38762 16.2433 6.27715 16.4255 6.20191C16.6077 6.12667 16.8029 6.08814 17 6.08853C17.7901 6.08848 18.5693 5.90445 19.276 5.55103C19.3945 5.49309 19.5312 5.48436 19.6561 5.52673C19.7811 5.5691 19.8842 5.65915 19.9431 5.77724C20.0019 5.89533 20.0117 6.0319 19.9703 6.15717C19.9289 6.28245 19.8396 6.38628 19.722 6.44603C18.877 6.86923 17.945 7.08972 17 7.09003C16.8674 7.09003 16.7402 7.14271 16.6464 7.23648C16.5527 7.33025 16.5 7.45742 16.5 7.59003V14.5C16.5 14.6326 16.4473 14.7598 16.3536 14.8536C16.2598 14.9474 16.1326 15 16 15Z" fill="white"/>
<path d="M13.5 11.5C12.9067 11.5 12.3266 11.6759 11.8333 12.0056C11.3399 12.3352 10.9554 12.8038 10.7284 13.3519C10.5013 13.9001 10.4419 14.5033 10.5576 15.0853C10.6734 15.6672 10.9591 16.2018 11.3787 16.6213C11.7982 17.0409 12.3328 17.3266 12.9147 17.4424C13.4967 17.5581 14.0999 17.4987 14.6481 17.2716C15.1962 17.0446 15.6648 16.6601 15.9944 16.1667C16.3241 15.6734 16.5 15.0933 16.5 14.5C16.4992 13.7046 16.1829 12.942 15.6204 12.3796C15.058 11.8171 14.2954 11.5008 13.5 11.5Z" fill="white"/>
<path d="M15 18.2051V18.5001C14.9988 18.8976 14.8404 19.2784 14.5593 19.5594C14.2783 19.8405 13.8975 19.9989 13.5 20.0001H1.5C1.10254 19.9989 0.721699 19.8405 0.440651 19.5594C0.159604 19.2784 0.00118726 18.8976 2.16008e-07 18.5001V17.5001C-0.000319412 16.1681 0.354083 14.8601 1.02678 13.7105C1.69947 12.5609 2.66618 11.6112 3.82753 10.9589C4.98889 10.3067 6.30298 9.97557 7.63473 9.9995C8.96647 10.0234 10.2678 10.4016 11.405 11.0951C10.6641 11.5518 10.0924 12.2377 9.77665 13.0487C9.46085 13.8597 9.41818 14.7516 9.65511 15.589C9.89204 16.4265 10.3956 17.1638 11.0895 17.6892C11.7834 18.2145 12.6297 18.4992 13.5 18.5001C14.0144 18.5004 14.524 18.4002 15 18.2051Z" fill="white"/>
<path d="M7.5 11C10.5376 11 13 8.53757 13 5.5C13 2.46243 10.5376 0 7.5 0C4.46243 0 2 2.46243 2 5.5C2 8.53757 4.46243 11 7.5 11Z" fill="white"/>
</svg>
