<svg width="22" height="22" viewBox="0 0 22 22" fill="none" xmlns="http://www.w3.org/2000/svg">
<path d="M21.0176 9.6226L21.0162 9.62115L12.3779 0.983175C12.0096 0.614737 11.5201 0.411865 10.9994 0.411865C10.4787 0.411865 9.98914 0.614613 9.62078 0.98301L0.986947 9.6166C0.984051 9.61949 0.981156 9.62255 0.978261 9.62549C0.222112 10.3859 0.223436 11.6198 0.981983 12.3784C1.3285 12.7251 1.78623 12.9259 2.27561 12.9469C2.29546 12.9488 2.31552 12.9498 2.33571 12.9498H2.67999V19.3069C2.67999 20.5648 3.70349 21.5883 4.96175 21.5883H8.3413C8.68385 21.5883 8.96171 21.3106 8.96171 20.9679V15.984C8.96171 15.41 9.42867 14.9431 10.0027 14.9431H11.9961C12.5701 14.9431 13.037 15.41 13.037 15.984V20.9679C13.037 21.3106 13.3148 21.5883 13.6574 21.5883H17.037C18.2953 21.5883 19.3188 20.5648 19.3188 19.3069V12.9498H19.638C20.1586 12.9498 20.6481 12.7471 21.0167 12.3787C21.776 11.6189 21.7763 10.3829 21.0176 9.6226Z" fill="#F3F3F3"/>
</svg>
