<svg width="24" height="24" viewBox="0 0 24 24" fill="none" xmlns="http://www.w3.org/2000/svg">
<path d="M9.8108 4.99066C8.54325 4.06164 7.24275 2.91663 6.31716 1.52824L5.50688 0.312863C5.33522 0.0553788 5.01525 -0.0592774 4.71792 0.0299726C4.57353 0.0737377 4.44704 0.162789 4.35715 0.283969C4.26727 0.405149 4.21874 0.55203 4.21875 0.70291V11.7347C3.80344 11.4925 3.32705 11.3435 2.8125 11.3435C1.26136 11.3435 0 12.6049 0 14.156C0 15.7072 1.26136 16.9685 2.8125 16.9685C4.36364 16.9685 5.625 15.7071 5.625 14.156V3.01155C6.61856 4.26743 7.86141 5.30515 8.97928 6.12499C9.52856 6.52736 9.84375 7.14813 9.84375 7.82786C9.84375 8.99102 8.89753 9.93724 7.73438 9.93724C7.34573 9.93724 7.03125 10.2517 7.03125 10.6404C7.03125 11.029 7.34573 11.3435 7.73438 11.3435C9.6728 11.3435 11.25 9.76628 11.25 7.82786C11.25 6.71205 10.7123 5.65188 9.8108 4.99066ZM23.1039 5.7453L13.1664 8.5578C13.0195 8.59984 12.8902 8.68858 12.7982 8.81061C12.7061 8.93263 12.6563 9.08131 12.6562 9.23416V18.7659C12.2409 18.5237 11.7645 18.3748 11.25 18.3748C9.69886 18.3748 8.4375 19.6361 8.4375 21.1873C8.4375 22.7384 9.69886 23.9998 11.25 23.9998C12.8011 23.9998 14.0625 22.7384 14.0625 21.1873V12.5773L22.5938 10.1666V15.9534C22.1784 15.7112 21.702 15.5623 21.1875 15.5623C19.6364 15.5623 18.375 16.8236 18.375 18.3748C18.375 19.9259 19.6364 21.1873 21.1875 21.1873C22.7386 21.1873 24 19.9259 24 18.3748V6.42166C24 5.95661 23.5552 5.61785 23.1039 5.7453Z" fill="white"/>
</svg>
