<svg width="24" height="24" viewBox="0 0 24 24" fill="none" xmlns="http://www.w3.org/2000/svg">
<path d="M12 6.125C12.9665 6.125 13.75 5.3415 13.75 4.375C13.75 3.4085 12.9665 2.625 12 2.625C11.0335 2.625 10.25 3.4085 10.25 4.375C10.25 5.3415 11.0335 6.125 12 6.125Z" fill="white"/>
<path d="M21 9.125C21.9665 9.125 22.75 8.3415 22.75 7.375C22.75 6.4085 21.9665 5.625 21 5.625C20.0335 5.625 19.25 6.4085 19.25 7.375C19.25 8.3415 20.0335 9.125 21 9.125Z" fill="white"/>
<path d="M3 9.125C3.9665 9.125 4.75 8.3415 4.75 7.375C4.75 6.4085 3.9665 5.625 3 5.625C2.0335 5.625 1.25 6.4085 1.25 7.375C1.25 8.3415 2.0335 9.125 3 9.125Z" fill="white"/>
<path fill-rule="evenodd" clip-rule="evenodd" d="M21.2346 8.52198C21.2655 8.36712 21.2468 8.20643 21.1811 8.06282C21.1154 7.91921 21.0061 7.80001 20.8686 7.72221C20.7312 7.6444 20.5727 7.61197 20.4158 7.62952C20.2588 7.64708 20.1114 7.71373 19.9946 7.81998L17.7686 9.84398C17.4967 10.0911 17.1684 10.2678 16.8125 10.3588C16.4566 10.4498 16.0838 10.4522 15.7267 10.3659C15.3696 10.2796 15.039 10.1072 14.7639 9.86364C14.4889 9.62013 14.2776 9.31297 14.1486 8.96898L12.7016 5.11198C12.6479 4.96919 12.5519 4.84617 12.4265 4.75933C12.301 4.6725 12.1521 4.62598 11.9996 4.62598C11.847 4.62598 11.6981 4.6725 11.5727 4.75933C11.4472 4.84617 11.3513 4.96919 11.2976 5.11198L9.85057 8.96898C9.72195 9.3133 9.51087 9.62083 9.23582 9.86463C8.96076 10.1084 8.63011 10.2811 8.27284 10.3674C7.91558 10.4538 7.54258 10.4512 7.18654 10.36C6.83049 10.2687 6.50225 10.0915 6.23057 9.84398L4.00457 7.81998C3.88772 7.71373 3.74032 7.64708 3.58337 7.62952C3.42642 7.61197 3.26794 7.6444 3.13051 7.72221C2.99307 7.80001 2.88371 7.91921 2.818 8.06282C2.75229 8.20643 2.73359 8.36712 2.76457 8.52198L4.44257 16.914C4.56719 17.5375 4.90404 18.0986 5.39576 18.5017C5.88749 18.9048 6.50372 19.1251 7.13957 19.125H16.8596C17.4954 19.1251 18.1116 18.9048 18.6034 18.5017C19.0951 18.0986 19.4319 17.5375 19.5566 16.914L21.2346 8.52198ZM17.9996 20.625H5.99957C5.80066 20.625 5.60989 20.704 5.46924 20.8446C5.32859 20.9853 5.24957 21.1761 5.24957 21.375C5.24957 21.5739 5.32859 21.7647 5.46924 21.9053C5.60989 22.046 5.80066 22.125 5.99957 22.125H17.9996C18.1985 22.125 18.3892 22.046 18.5299 21.9053C18.6706 21.7647 18.7496 21.5739 18.7496 21.375C18.7496 21.1761 18.6706 20.9853 18.5299 20.8446C18.3892 20.704 18.1985 20.625 17.9996 20.625Z" fill="white"/>
</svg>
