<svg width="24" height="24" viewBox="0 0 24 24" fill="none" xmlns="http://www.w3.org/2000/svg">
<mask id="mask0_63_648" style="mask-type:luminance" maskUnits="userSpaceOnUse" x="0" y="0" width="24" height="24">
<path fill-rule="evenodd" clip-rule="evenodd" d="M0 0H24V24H0V0Z" fill="white"/>
</mask>
<g mask="url(#mask0_63_648)">
<path fill-rule="evenodd" clip-rule="evenodd" d="M11.25 6.00002C11.25 4.13627 11.9093 2.54477 13.227 1.22702C13.3372 1.11677 13.4497 1.01102 13.5637 0.909766C13.0497 0.802493 12.5259 0.748956 12.0007 0.750015H11.9992C10.0642 0.750015 8.37975 1.39877 6.945 2.69627C5.51025 3.99377 4.695 5.60477 4.50075 7.52927L3.86475 13.8248C2.7885 14.3228 2.25 15.2145 2.25 16.4993V16.5008C2.25 18.5003 3.24975 19.5 5.24925 19.5H18.7507C20.7502 19.5 21.75 18.5003 21.75 16.5008V16.4993C21.75 15.2145 21.2115 14.3228 20.1353 13.8248L19.998 12.4673C19.3495 12.6589 18.6763 12.7542 18 12.75C16.1363 12.75 14.5448 12.0908 13.227 10.773C11.9093 9.45527 11.25 7.86377 11.25 6.00002ZM14.2875 2.28752C13.2622 3.31277 12.75 4.55027 12.75 6.00002C12.75 7.44977 13.2622 8.68727 14.2875 9.71252C15.3127 10.7378 16.5503 11.25 18 11.25C19.4498 11.25 20.6873 10.7378 21.7125 9.71252C22.7378 8.68727 23.25 7.44977 23.25 6.00002C23.25 4.55027 22.7378 3.31277 21.7125 2.28752C20.6873 1.26227 19.4498 0.750015 18 0.750015C16.5503 0.750015 15.3127 1.26227 14.2875 2.28752ZM17.295 5.35952L17.0303 5.09477C16.884 4.94852 16.7078 4.87502 16.5 4.87502C16.2922 4.87502 16.116 4.94852 15.9697 5.09477C15.8998 5.16415 15.8443 5.24676 15.8066 5.3378C15.7688 5.42884 15.7496 5.52647 15.75 5.62502C15.7497 5.72356 15.7689 5.82118 15.8066 5.91221C15.8443 6.00324 15.8998 6.08587 15.9697 6.15527L17.0947 7.28027C17.241 7.42652 17.4172 7.50002 17.625 7.50002C17.8328 7.50002 18.009 7.42652 18.1553 7.28027L20.4053 5.03027C20.4752 4.96089 20.5307 4.87827 20.5684 4.78724C20.6062 4.6962 20.6254 4.59856 20.625 4.50002C20.6253 4.40148 20.6061 4.30386 20.5684 4.21282C20.5307 4.12179 20.4752 4.03917 20.4053 3.96977C20.259 3.82352 20.0828 3.75002 19.875 3.75002C19.6672 3.75002 19.491 3.82352 19.3447 3.96977L18.2843 5.03027L17.625 5.68952L17.295 5.35952ZM8.8185 21.9323C8.53742 21.6537 8.29295 21.3404 8.091 21H15.9105C15.7155 21.33 15.4732 21.6413 15.183 21.9323C14.3025 22.8105 13.2428 23.25 12 23.25C10.7572 23.25 9.69675 22.8105 8.81775 21.9323H8.8185Z" fill="white"/>
</g>
</svg>
