<svg width="18" height="20" viewBox="0 0 18 20" fill="none" xmlns="http://www.w3.org/2000/svg">
<path d="M4.25 5C4.25 2.381 6.381 0.25 9 0.25C11.619 0.25 13.75 2.381 13.75 5C13.75 7.619 11.619 9.75 9 9.75C6.381 9.75 4.25 7.619 4.25 5ZM12 11.25H6C2.83 11.25 0.25 13.83 0.25 17C0.25053 17.7292 0.540431 18.4283 1.05604 18.944C1.57165 19.4596 2.27082 19.7495 3 19.75H15C15.7292 19.7495 16.4283 19.4596 16.944 18.944C17.4596 18.4283 17.7495 17.7292 17.75 17C17.75 13.83 15.17 11.25 12 11.25Z" fill="white"/>
</svg>
